<svg data-v-0dd9719b="" version="1.0" xmlns="http://www.w3.org/2000/svg" xmlns:xlink="http://www.w3.org/1999/xlink" width="100%" height="100%" viewBox="0 0 340.000000 250.000000" preserveAspectRatio="xMidYMid meet" color-interpolation-filters="sRGB" style="margin: auto;"> <rect data-v-0dd9719b="" x="0" y="0" width="100%" height="100%" fill="#fff" fill-opacity="1" class="background"></rect> <rect data-v-0dd9719b="" x="0" y="0" width="100%" height="100%" fill="url(#watermark)" fill-opacity="1" class="watermarklayer"></rect> <g data-v-0dd9719b="" fill="#e30613" class="icon-text-wrapper icon-svg-group iconsvg" transform="translate(49.035003662109375,82.12509536743164)"><g class="iconsvg-imagesvg" transform="translate(0,0)"><g><rect fill="#e30613" fill-opacity="0" stroke-width="2" x="0" y="0" width="60" height="85.74981063583483" class="image-rect"></rect> <svg x="0" y="0" width="60" height="85.74981063583483" filtersec="colorsb965362625" class="image-svg-svg primary" style="overflow: visible;"><svg xmlns="http://www.w3.org/2000/svg" viewBox="-1.1926201182177465e-7 -1.563193480806299e-15 12.000009536743164 17.14999771118164"><g><g><g fill="#e30613"><path d="M10.75 6.34a.22.22 0 0 0 .25-.22V3.53h.59v3.62a.22.22 0 0 0 .22.22.22.22 0 0 0 .19-.22V3.32a.22.22 0 0 0-.22-.22H3.53v-.6h7.21a.22.22 0 1 0 0-.44H3.53v-.59h6.19a.22.22 0 0 0 0-.44H3.53V.44h5.14a.22.22 0 0 0 0-.44H3.31a.22.22 0 0 0-.22.22v6.5H2.5V1.25a.22.22 0 1 0-.44 0v5.56h-.59V2.28a.22.22 0 1 0-.44 0v4.53H.44v-3.5a.22.22 0 0 0-.22-.22.22.22 0 0 0-.22.22V7a.22.22 0 0 0 .22.22h8.25v.59H1.25a.22.22 0 0 0 0 .44h7.22v.59H2.28a.22.22 0 1 0 0 .44h6.19v.62H3.31a.22.22 0 0 0 0 .44h5.16v3.28H3.54v-.53a.22.22 0 1 0-.44 0v.68a.22.22 0 0 0 0 .07.21.21 0 0 0 0 .07v.89a.19.19 0 0 0 0 .14v.89a.21.21 0 0 0 0 .07.21.21 0 0 0 0 .07v.89a.21.21 0 0 0 0 .07.22.22 0 0 0 .22.22h5.35a.22.22 0 0 0 0-.44H3.54v-.59h6.18a.22.22 0 0 0 0-.44H3.54v-.59h7.2a.22.22 0 1 0 0-.44h-7.2v-.59h8.23a.22.22 0 0 0 .22-.22.25.25 0 0 0 0-.06.28.28 0 0 0 0-.06v-3.6a.22.22 0 0 0-.44 0v3.5H11V9.08a.22.22 0 0 0-.44 0v4.53h-.62V8.05a.22.22 0 1 0-.44 0v5.56h-.59V7a.22.22 0 0 0-.22-.22H3.53V3.53h4.94v.53a.22.22 0 1 0 .44 0v-.53h.59v1.56a.22.22 0 0 0 .22.22.22.22 0 0 0 .28-.23V3.53h.59v2.59a.22.22 0 0 0 .16.22zM.23 9.78A.22.22 0 0 0 0 10v3.83a.22.22 0 1 0 .44 0V10a.22.22 0 0 0-.21-.22z"></path><path d="M1.26 10.81A.22.22 0 0 0 1 11v3.83a.22.22 0 0 0 .44 0V11a.22.22 0 0 0-.18-.19zM2.28 11.84a.22.22 0 0 0-.22.22v3.83a.22.22 0 1 0 .44 0v-3.83a.22.22 0 0 0-.22-.22z"></path></g></g></g></svg></svg> <!----></g></g> <g transform="translate(67,26.37308692932129)"><g data-gra="path-name" fill-rule="" class="tp-name iconsvg-namesvg"><g transform="scale(1)"><g><path d="M12.63 5.66L12.63 5.66Q12.27 5.66 11.88 5.63 11.5 5.61 11.13 5.57L11.13 5.57Q9.91 5.43 8.53 4.96 7.15 4.48 5.91 3.49 4.66 2.49 3.62 0.88 2.58-0.72 1.99-3.12L1.99-3.12 5.43-3.98Q6.79 1.45 11.54 2.04L11.54 2.04Q12.76 2.17 14.05 1.99 15.34 1.81 16.45 1.27 17.56 0.72 18.33-0.16 19.1-1.04 19.33-2.22L19.33-2.22Q19.46-3.08 19.37-4.12 19.28-5.16 18.51-6.2 17.74-7.24 16.09-8.24 14.44-9.23 11.45-10L11.45-10Q9.05-10.64 7.22-11.95 5.39-13.26 4.39-15.07L4.39-15.07Q2.76-18.01 3.8-21.27L3.8-21.27Q4.66-23.99 6.88-25.59 9.1-27.2 12.13-27.34L12.13-27.34Q13.62-27.38 15.25-26.98 16.88-26.57 18.4-25.69 19.91-24.8 21.18-23.38 22.45-21.95 23.26-19.96L23.26-19.96 19.96-18.65Q19.37-20.14 18.44-21.14 17.52-22.13 16.47-22.72 15.43-23.31 14.32-23.56 13.22-23.81 12.27-23.76L12.27-23.76Q10.36-23.67 9.03-22.72 7.69-21.77 7.2-20.19L7.2-20.19Q6.65-18.33 7.51-16.79L7.51-16.79Q8.15-15.66 9.41-14.78 10.68-13.89 12.36-13.44L12.36-13.44Q16.07-12.45 18.26-11.04 20.46-9.64 21.57-8.03 22.68-6.43 22.88-4.75 23.08-3.08 22.81-1.58L22.81-1.58Q22.49 0.18 21.52 1.54 20.55 2.9 19.15 3.8 17.74 4.71 16.04 5.18 14.35 5.66 12.63 5.66ZM39.33-5.97L39.33-5.97 32.45-5.97 32.45 5.02 28.92 5.02 28.92-22.58 27.74-22.58 27.74-26.12 39.33-26.12Q41.28-26.12 43.07-25.3 44.85-24.49 46.21-23.11 47.57-21.72 48.38-19.89 49.2-18.06 49.2-16.07L49.2-16.07Q49.2-14.03 48.38-12.22 47.57-10.41 46.21-9.01 44.85-7.6 43.07-6.79 41.28-5.97 39.33-5.97ZM32.45-9.55L39.33-9.55Q40.46-9.55 41.57-10.05 42.68-10.55 43.59-11.41 44.49-12.27 45.06-13.46 45.62-14.66 45.62-16.07L45.62-16.07Q45.62-17.47 45.06-18.65 44.49-19.82 43.59-20.71 42.68-21.59 41.57-22.09 40.46-22.58 39.33-22.58L39.33-22.58 32.45-22.58 32.45-9.55ZM77.8 5.2L77.8 5.2 66.85-22.4 63.41-22.4 63.41-25.98 69.25-25.98 81.11 3.89 77.8 5.2ZM56.85 5.3L56.85 5.3 53.54 3.98 64.99-24.76 68.3-23.44 56.85 5.3ZM75.68-4.12L75.68-4.12 59.65-4.12 59.65-7.69 75.68-7.69 75.68-4.12ZM90.93 5.02L90.93 5.02 87.35 5.02 87.35-24.35 90.93-24.35 90.93 5.02ZM108.76 4.98L108.76 4.98 105.46 4.98 90.7-22.58 86.36-22.58 86.36-26.12 92.83-26.12 105.18-3.08 105.18-26.48 108.76-26.48 108.76 4.98ZM120.71 5.07L120.71 5.07 117.13 5.07 117.13-25.84 120.71-25.84 120.71 5.07ZM138.18 5.66L138.18 5.66Q137.82 5.66 137.43 5.63 137.05 5.61 136.69 5.57L136.69 5.57Q135.46 5.43 134.08 4.96 132.7 4.48 131.46 3.49 130.21 2.49 129.17 0.88 128.13-0.72 127.54-3.12L127.54-3.12 130.98-3.98Q132.34 1.45 137.09 2.04L137.09 2.04Q138.32 2.17 139.61 1.99 140.9 1.81 142 1.27 143.11 0.72 143.88-0.16 144.65-1.04 144.88-2.22L144.88-2.22Q145.01-3.08 144.92-4.12 144.83-5.16 144.06-6.2 143.29-7.24 141.64-8.24 139.99-9.23 137-10L137-10Q134.6-10.64 132.77-11.95 130.94-13.26 129.94-15.07L129.94-15.07Q128.31-18.01 129.35-21.27L129.35-21.27Q130.21-23.99 132.43-25.59 134.65-27.2 137.68-27.34L137.68-27.34Q139.18-27.38 140.8-26.98 142.43-26.57 143.95-25.69 145.47-24.8 146.73-23.38 148-21.95 148.82-19.96L148.82-19.96 145.51-18.65Q144.92-20.14 144-21.14 143.07-22.13 142.03-22.72 140.99-23.31 139.88-23.56 138.77-23.81 137.82-23.76L137.82-23.76Q135.92-23.67 134.58-22.72 133.25-21.77 132.75-20.19L132.75-20.19Q132.21-18.33 133.07-16.79L133.07-16.79Q133.7-15.66 134.97-14.78 136.23-13.89 137.91-13.44L137.91-13.44Q141.62-12.45 143.81-11.04 146.01-9.64 147.12-8.03 148.23-6.43 148.43-4.75 148.63-3.08 148.36-1.58L148.36-1.58Q148.05 0.18 147.07 1.54 146.1 2.9 144.7 3.8 143.29 4.71 141.6 5.18 139.9 5.66 138.18 5.66ZM158.95 5.07L158.95 5.07 155.42 5.07 155.42-22.27 154.07-22.27 154.07-25.84 158.95-25.84 158.95 5.07ZM176.92 5.07L176.92 5.07 173.39 5.07 173.39-25.84 176.92-25.84 176.92 5.07ZM175.16-9.23L175.16-9.23 155.74-9.23 155.74-12.81 175.16-12.81 175.16-9.23Z" transform="translate(-1.9900000095367432, 27.34363555908203)"></path></g> <!----> <!----> <!----> <!----> <!----> <!----> <!----></g></g> <!----></g></g><defs v-gra="od"></defs></svg>